<svg width="70" height="53" viewBox="0 0 70 53" fill="none" xmlns="http://www.w3.org/2000/svg">
<path d="M13.4857 8.09616C13.4857 8.5174 13.4579 8.89082 13.4015 9.21562C12.6744 13.6364 10.6316 15.8468 7.27444 15.8468C5.5579 15.8468 4.01955 15.397 2.65789 14.4974V15.1C2.6391 16.3822 2.75113 17.2633 2.99399 17.7408C3.34812 18.4113 3.52556 18.794 3.52556 18.8889C3.52556 19.2723 3.3812 19.6064 3.09173 19.8934C2.80226 20.1804 2.47143 20.3239 2.0985 20.3239C1.2594 20.3239 0.690226 20.0176 0.391729 19.405C0.22406 19.0416 0.112031 18.3619 0.0556395 17.3667C0.0180455 16.7163 0 15.9702 0 15.1277C0 14.8022 0.0421051 14.3146 0.125564 13.6634C0.209774 13.013 0.251128 12.5154 0.251128 12.1705V10.2186C0.232331 9.64459 0.269173 8.79746 0.363158 7.67799C0.456391 6.55852 0.503008 5.73068 0.503008 5.19448V2.61068C0.503008 2.57288 0.418797 2.05597 0.251128 1.06071C0.731579 0.601666 1.18421 0.371755 1.60902 0.371755C2.10752 0.371755 2.50526 0.558461 2.80075 0.93187C3.09624 1.30528 3.24436 1.7597 3.24436 2.29513V2.6971C4.47519 1.03217 6.03233 0.199707 7.91654 0.199707C9.68797 0.199707 11.0872 0.879407 12.1128 2.23804C13.0263 3.46321 13.4835 5.01318 13.4835 6.88873V8.09462L13.4857 8.09616ZM10.9399 7.6371C10.9399 6.31627 10.7444 5.18754 10.3526 4.24938C9.81128 2.98641 8.98196 2.35455 7.86241 2.35455C6.42632 2.35455 5.19474 3.25413 4.16917 5.0533C3.25489 6.62256 2.7985 8.20186 2.7985 9.7904C2.7985 12.4506 4.10376 13.7807 6.71504 13.7807C8.11353 13.7807 9.1391 13.1588 9.79248 11.9144C10.1654 11.2254 10.5195 9.97248 10.8556 8.15402C10.9113 7.79064 10.9399 7.61858 10.9399 7.6371Z" fill="white"/>
<path d="M26.8555 10.8444C26.8555 14.138 26.7555 16.4618 26.557 17.8143C26.4322 18.6051 25.9097 19.0016 24.9894 19.0016C23.5954 19.0016 22.9743 18.2864 23.1232 16.8568C21.8788 17.4694 20.5856 17.7757 19.242 17.7757C17.8984 17.7757 16.7164 17.444 15.5473 16.7797C14.1533 15.9889 13.457 14.9797 13.457 13.7546C13.457 12.5294 14.2533 11.4316 15.8458 10.3846C17.2886 9.44028 18.645 8.96734 19.9142 8.96734H23.0864V8.05541C23.1112 5.39523 22.3397 4.06514 20.7721 4.06514C18.8059 4.06514 17.8239 5.00022 17.8239 6.87036C17.8239 7.50223 17.4751 7.81855 16.7788 7.81855C16.3555 7.81855 15.9142 7.62105 15.454 7.22526C14.9931 6.82947 14.7638 6.41517 14.7638 5.98081C14.7638 4.55119 15.2615 3.37695 16.257 2.45731C17.2518 1.53844 18.4465 1.07861 19.8397 1.07861C24.5172 1.07861 26.8563 4.33363 26.8563 10.8444H26.8555ZM23.0864 12.2231C23.0864 11.7124 22.7134 11.457 21.9668 11.457C18.8563 11.457 17.3014 12.21 17.3014 13.7168C17.3014 14.5338 17.9856 14.9419 19.354 14.9419C20.1999 14.9419 20.9961 14.6997 21.7427 14.2144C22.6382 13.6782 23.0864 13.0147 23.0864 12.2231Z" fill="white"/>
<path d="M42.5582 8.07852C42.5582 11.0874 41.8868 13.7993 40.5439 16.2141C38.9394 19.0888 36.7853 20.5261 34.0815 20.5261C33.1116 20.5261 32.2725 20.3155 31.5635 19.8942C31.1717 20.3147 30.789 20.5261 30.4161 20.5261C30.192 20.5261 29.9311 20.4011 29.6326 20.1512C29.259 19.0749 29.0732 17.643 29.0732 15.8554C29.0732 14.3177 29.1153 12.0109 29.1988 8.93567C29.283 5.86042 29.3244 3.55359 29.3244 2.01596C29.3244 1.97816 29.3146 1.91027 29.2966 1.8146C29.2778 1.71893 29.2687 1.64178 29.2687 1.58392C29.2687 1.23828 29.3898 0.959763 29.6326 0.747596C29.8747 0.536202 30.1642 0.430504 30.5003 0.430504C30.9665 0.430504 31.3815 0.602552 31.7454 0.947418C32.1093 1.29151 32.2439 1.69347 32.1514 2.15329C33.1026 0.718279 34.4544 0 36.2078 0C38.3341 0 39.9657 0.824748 41.1041 2.4727C42.074 3.92932 42.559 5.79792 42.559 8.07852H42.5582ZM39.7883 7.96279C39.7883 4.05199 38.6695 2.0962 36.4311 2.0962C35.5168 2.0962 34.6123 2.57608 33.7176 3.5343C32.9341 4.37834 32.3981 5.29335 32.1093 6.28089C31.8199 7.26843 31.6755 8.35626 31.6755 9.54439V15.7273C31.6755 17.5296 32.4123 18.4307 33.8853 18.4307C35.2093 18.4307 36.4123 17.7309 37.4943 16.3314C38.3898 15.1425 39.0048 13.7916 39.3409 12.2763C39.6394 10.9154 39.7883 9.47727 39.7883 7.96279Z" fill="white"/>
<path d="M57.611 15.7488C57.611 17.1413 56.6884 18.2269 54.8433 19.0061C53.405 19.6179 51.899 19.925 50.3253 19.925C46.1463 19.925 44.0576 17.4893 44.0576 12.6164C44.0576 10.612 44.5321 8.38467 45.4824 5.93434C46.6486 2.92775 48.0599 1.42407 49.7155 1.42407C51.2072 1.42407 52.8148 2.10685 54.5388 3.47012C56.2614 4.83493 57.123 6.25451 57.123 7.72965C57.123 9.5674 56.3223 11.0286 54.7215 12.1149C53.3103 13.0901 51.6283 13.5769 49.6749 13.5769C49.2945 13.5769 48.6839 13.3409 47.8433 12.8672C47.9516 15.5127 48.711 16.8343 50.1223 16.8343C51.3163 16.8343 52.4892 16.4863 53.6426 15.7904C54.796 15.0945 55.5351 14.7466 55.8606 14.7466C57.0268 14.7466 57.611 15.0806 57.611 15.7488ZM53.1742 7.85541C53.1742 7.15949 52.9772 6.49832 52.5839 5.87185C52.19 5.24538 51.6681 4.93214 51.017 4.93214C50.1215 4.93214 49.4298 5.33641 48.9411 6.14341C48.5343 6.83932 48.3306 7.66098 48.3306 8.60763C48.3306 9.13689 48.5065 9.56817 48.8599 9.90223C49.2125 10.2363 49.6599 10.4037 50.2027 10.4037C52.1832 10.4037 53.1742 9.55505 53.1742 7.85618V7.85541Z" fill="white"/>
<path d="M69.988 19.435C67.9737 20.1811 65.8473 20.5545 63.609 20.5545C61.8556 20.5545 60.6248 19.9226 59.9158 18.6596C59.3744 17.6837 59.1045 16.2294 59.1045 14.296C59.1045 13.1672 59.1887 11.4923 59.3564 9.27187C59.524 7.05224 59.6083 5.37729 59.6083 4.24779C59.6083 4.03717 59.594 3.70233 59.5661 3.24328C59.5383 2.78423 59.524 2.43936 59.524 2.20945C59.524 1.97954 59.5421 1.72108 59.5797 1.43407C59.9526 0.975023 60.409 0.745117 60.9504 0.745117C61.4917 0.745117 61.8737 1.08922 62.1534 1.77895C62.3774 2.31514 62.4895 2.88916 62.4895 3.50174C62.4895 4.80328 62.3676 6.73669 62.1255 9.30042C61.8827 11.8649 61.7616 13.7891 61.7616 15.0706C61.7616 17.3288 62.3864 18.4583 63.6361 18.4583C64.1955 18.4583 64.997 18.2623 66.0421 17.8696C67.0864 17.4777 67.8887 17.2809 68.4481 17.2809C68.9699 17.2809 69.3714 17.5201 69.6511 17.9985C69.8752 18.3819 69.9872 18.8595 69.9872 19.4335V19.435H69.988Z" fill="white"/>
<path d="M24.4857 34.4182C24.4857 34.8394 24.4579 35.2128 24.4015 35.5376C23.6744 39.9584 21.6316 42.1688 18.2744 42.1688C16.5579 42.1688 15.0195 41.719 13.6579 40.8194V41.422C13.6391 42.7042 13.7511 43.5845 13.994 44.0629C14.3481 44.7333 14.5256 45.116 14.5256 45.2109C14.5256 45.5935 14.3812 45.9284 14.0917 46.2154C13.8023 46.5024 13.4714 46.6459 13.0985 46.6459C12.2594 46.6459 11.6902 46.3396 11.3917 45.727C11.2241 45.3636 11.112 44.6839 11.0556 43.6887C11.018 43.0383 11 42.2922 11 41.4497C11 41.1242 11.0421 40.6366 11.1256 39.9854C11.2098 39.335 11.2511 38.8374 11.2511 38.4925V36.5406C11.2323 35.9666 11.2692 35.1195 11.3632 34C11.4564 32.8805 11.503 32.0527 11.503 31.5165V28.9327C11.503 28.8949 11.4188 28.378 11.2511 27.3827C11.7316 26.9237 12.1842 26.6938 12.609 26.6938C13.1075 26.6938 13.5053 26.8805 13.8008 27.2539C14.0962 27.6273 14.2444 28.0817 14.2444 28.6172V29.0191C15.4752 27.3542 17.0323 26.5217 18.9165 26.5217C20.688 26.5217 22.0872 27.2014 23.1128 28.5601C24.0263 29.7852 24.4835 31.3352 24.4835 33.2108V34.4166L24.4857 34.4182ZM21.9399 33.9591C21.9399 32.6383 21.7444 31.5096 21.3526 30.5714C20.8113 29.3084 19.982 28.6766 18.8624 28.6766C17.4263 28.6766 16.1947 29.5762 15.1692 31.3753C14.2549 32.9446 13.7985 34.5239 13.7985 36.1124C13.7985 38.7726 15.1038 40.1027 17.715 40.1027C19.1135 40.1027 20.1391 39.4808 20.7925 38.2364C21.1654 37.5474 21.5195 36.2945 21.8556 34.476C21.9113 34.1126 21.9399 33.9406 21.9399 33.9591Z" fill="white"/>
<path d="M40.0718 51.4956C37.4177 52.4793 34.6154 52.9708 31.6658 52.9708C29.3553 52.9708 27.7327 52.1383 26.7996 50.4742C26.0861 49.188 25.7305 47.2716 25.7305 44.7241C25.7305 43.2366 25.841 41.0301 26.062 38.1037C26.2831 35.1781 26.3936 32.9716 26.3936 31.4834C26.3936 31.2064 26.3756 30.7643 26.338 30.1594C26.3011 29.5538 26.2823 29.1002 26.2823 28.7977C26.2823 28.4953 26.3064 28.1543 26.356 27.7762C26.8478 27.1706 27.4493 26.8682 28.1628 26.8682C28.8763 26.8682 29.3793 27.3218 29.7478 28.2299C30.0425 28.9358 30.1899 29.6927 30.1899 30.4997C30.1899 32.2147 30.0297 34.7623 29.7109 38.1415C29.3914 41.5215 29.232 44.0559 29.232 45.7455C29.232 48.722 30.0553 50.2095 31.7019 50.2095C32.4395 50.2095 33.4959 49.9511 34.8726 49.4342C36.2485 48.9172 37.3057 48.6588 38.0432 48.6588C38.7312 48.6588 39.2598 48.9743 39.6282 49.6047C39.923 50.1092 40.0703 50.7396 40.0703 51.4964H40.0718V51.4956Z" fill="white"/>
<path d="M59.3668 30.5915C59.1735 31.6924 58.9908 32.7818 58.8194 33.8596C58.6044 35.1365 58.4976 36.2259 58.4976 37.1278V46.1082C58.4976 47.7368 58.042 48.9805 57.1299 49.8392C56.2179 50.6979 54.969 51.1269 53.3818 51.1269C52.3525 51.1269 51.2149 50.8514 49.9713 50.3014C48.4916 49.6625 47.751 48.8926 47.751 47.9907C47.751 47.6821 47.8743 47.4236 48.1209 47.2145C48.3675 47.0054 48.6405 46.9005 48.9412 46.9005C49.1344 46.9005 49.5953 47.1976 50.3247 47.7916C51.054 48.3857 51.8901 48.6827 52.8344 48.6827C54.0352 48.6827 54.8397 48.2314 55.2472 47.3295C55.5472 46.713 55.6976 45.7224 55.6976 44.3584C55.6976 43.8515 55.6863 43.4341 55.6653 43.1039C54.9577 43.5876 54.1638 43.8299 53.2841 43.8299C51.675 43.8299 50.4314 43.2358 49.5517 42.0469C48.7577 40.9691 48.3615 39.5927 48.3615 37.9201C48.3615 37.7442 48.4683 34.9706 48.6833 29.6001C49.3269 29.3146 49.842 29.1711 50.2277 29.1711C50.6562 29.1711 51.2893 29.435 52.1262 29.9635C51.6111 31.2843 51.354 33.9252 51.354 37.8869C51.354 40.4183 51.9758 41.6835 53.2202 41.6835C54.142 41.6835 54.8502 40.8912 55.3435 39.3065C55.7081 38.1624 55.8901 36.9735 55.8901 35.7406V31.7125C55.8901 31.7349 55.8577 31.3715 55.7938 30.6231C56.6728 30.1834 57.3269 29.9627 57.7562 29.9627C58.2066 29.9627 58.7427 30.1718 59.3653 30.59L59.3668 30.5915Z" fill="white"/>
<path d="M45.9883 38.1152C45.9883 41.4088 45.8883 43.7326 45.6898 45.085C45.565 45.8758 45.0425 46.2724 44.1222 46.2724C42.7282 46.2724 42.1071 45.5572 42.256 44.1276C41.0117 44.7402 39.7184 45.0465 38.3748 45.0465C37.0312 45.0465 35.8492 44.7147 34.6801 44.0504C33.2861 43.2596 32.5898 42.2505 32.5898 41.0253C32.5898 39.8002 33.3861 38.7023 34.9786 37.6554C36.4214 36.711 37.7778 36.2381 39.047 36.2381H42.2192V35.3262C42.244 32.666 41.4726 31.3359 39.9049 31.3359C37.9387 31.3359 36.9568 32.271 36.9568 34.1411C36.9568 34.773 36.6079 35.0893 35.9116 35.0893C35.4883 35.0893 35.047 34.8918 34.5868 34.496C34.1259 34.1002 33.8966 33.6859 33.8966 33.2516C33.8966 31.8219 34.3944 30.6477 35.3898 29.7281C36.3846 28.8092 37.5793 28.3494 38.9725 28.3494C43.65 28.3494 45.9891 31.6044 45.9891 38.1152H45.9883ZM42.2192 39.4939C42.2192 38.9831 41.8462 38.7278 41.0996 38.7278C37.9891 38.7278 36.4342 39.4808 36.4342 40.9875C36.4342 41.8046 37.1184 42.2127 38.4868 42.2127C39.3327 42.2127 40.1289 41.9704 40.8756 41.4852C41.771 40.949 42.2192 40.2854 42.2192 39.4939Z" fill="white"/>
</svg>
