<svg width="53" height="79" viewBox="0 0 53 79" fill="none" xmlns="http://www.w3.org/2000/svg">
<path fill-rule="evenodd" clip-rule="evenodd" d="M18.2501 3.17367C34.3217 -2.6759 45.477 2.5259 51.3266 18.5975C55.3484 29.6472 51.9478 41.1841 41.8188 52.835L48.6965 71.7338C49.6714 74.4124 48.2903 77.3742 45.6117 78.3491C43.1245 79.2544 40.393 78.1282 39.235 75.8181L38.9965 75.2643L32.1184 56.367C16.8783 53.9576 6.8457 47.2933 2.82633 36.2501C-3.02325 20.1786 2.17856 9.02325 18.2501 3.17367ZM21.7807 12.8737C11.0663 16.7734 8.62666 22.0052 12.5264 32.7196C15.1884 40.0333 22.3812 44.6244 34.9331 46.3495L33.9032 46.1952L34.2004 45.8679C41.6032 37.3061 43.9813 29.7913 41.9205 23.0086L41.6265 22.128C37.7268 11.4136 32.495 8.97401 21.7807 12.8737Z" fill="white"/>
</svg>
